<svg width="20" height="18" viewBox="0 0 20 18" fill="none" xmlns="http://www.w3.org/2000/svg">
<path fill-rule="evenodd" clip-rule="evenodd" d="M12.0576 0C12.3394 0 12.608 0.118853 12.7976 0.327327L14.8512 2.58634C14.946 2.69057 15.0803 2.75 15.2212 2.75H16.7C18.5225 2.75 20 4.22746 20 6.05V14.7C20 16.5225 18.5225 18 16.7 18H3.3C1.47746 18 0 16.5225 0 14.7V6.05C0 4.22746 1.47746 2.75 3.3 2.75H4.77882C4.91969 2.75 5.05402 2.69057 5.14879 2.58634L7.20243 0.327327C7.39195 0.118853 7.66062 0 7.94237 0H12.0576ZM10 4.5C6.96243 4.5 4.5 6.96243 4.5 10C4.5 13.0376 6.96243 15.5 10 15.5C13.0376 15.5 15.5 13.0376 15.5 10C15.5 6.96243 13.0376 4.5 10 4.5ZM10 6.5C11.933 6.5 13.5 8.067 13.5 10C13.5 11.933 11.933 13.5 10 13.5C8.067 13.5 6.5 11.933 6.5 10C6.5 8.067 8.067 6.5 10 6.5Z" fill="white"/>
</svg>
