<svg width="30" height="30" viewBox="0 0 30 30" fill="none" xmlns="http://www.w3.org/2000/svg">
<path fill-rule="evenodd" clip-rule="evenodd" d="M19.75 10.25C19.75 5.00329 15.4967 0.75 10.25 0.75C5.00329 0.75 0.75 5.00329 0.75 10.25C0.75 15.4967 5.00329 19.75 10.25 19.75C15.4967 19.75 19.75 15.4967 19.75 10.25ZM21.8076 11.2102C21.9386 10.8173 22.3633 10.6049 22.7563 10.7359C26.6035 12.0184 29.25 15.6303 29.25 19.7502C29.25 24.9969 24.9967 29.2502 19.75 29.2502C15.6165 29.2502 11.9954 26.5863 10.7239 22.7209C10.5945 22.3274 10.8085 21.9035 11.202 21.7741C11.5955 21.6446 12.0194 21.8587 12.1488 22.2521C13.2193 25.5066 16.269 27.7502 19.75 27.7502C24.1683 27.7502 27.75 24.1685 27.75 19.7502C27.75 16.2807 25.5211 13.2387 22.2819 12.1589C21.8889 12.0279 21.6766 11.6032 21.8076 11.2102ZM22.4202 23.4937C22.6829 23.1735 23.1554 23.1268 23.4757 23.3896C23.7959 23.6523 23.8426 24.1249 23.5798 24.4451C22.6034 25.6353 21.307 26.2431 19.75 26.2431C18.193 26.2431 16.8966 25.6353 15.9202 24.4451C15.6574 24.1249 15.7041 23.6523 16.0243 23.3896C16.3446 23.1268 16.8171 23.1735 17.0798 23.4937C17.7701 24.3351 18.6403 24.7431 19.75 24.7431C20.8597 24.7431 21.7299 24.3351 22.4202 23.4937ZM17.75 20.75C17.75 20.0596 17.1904 19.5 16.5 19.5C15.8096 19.5 15.25 20.0596 15.25 20.75C15.25 21.4404 15.8096 22 16.5 22C17.1904 22 17.75 21.4404 17.75 20.75ZM23 19.5C23.6904 19.5 24.25 20.0596 24.25 20.75C24.25 21.4404 23.6904 22 23 22C22.3096 22 21.75 21.4404 21.75 20.75C21.75 20.0596 22.3096 19.5 23 19.5ZM10.25 2.25C5.83172 2.25 2.25 5.83172 2.25 10.25C2.25 14.6683 5.83172 18.25 10.25 18.25C14.6683 18.25 18.25 14.6683 18.25 10.25C18.25 5.83172 14.6683 2.25 10.25 2.25ZM13.9757 12.8896C13.6554 12.6268 13.1829 12.6735 12.9202 12.9937C12.2299 13.8351 11.3597 14.2431 10.25 14.2431C9.14032 14.2431 8.27011 13.8351 7.57985 12.9937C7.31713 12.6735 6.84456 12.6268 6.52431 12.8896C6.20407 13.1523 6.15744 13.6249 6.42015 13.9451C7.39655 15.1353 8.69301 15.7431 10.25 15.7431C11.807 15.7431 13.1034 15.1353 14.0798 13.9451C14.3426 13.6249 14.2959 13.1523 13.9757 12.8896ZM7 8.5C7.69036 8.5 8.25 9.05964 8.25 9.75C8.25 10.4404 7.69036 11 7 11C6.30964 11 5.75 10.4404 5.75 9.75C5.75 9.05964 6.30964 8.5 7 8.5ZM14.75 9.75C14.75 9.05964 14.1904 8.5 13.5 8.5C12.8096 8.5 12.25 9.05964 12.25 9.75C12.25 10.4404 12.8096 11 13.5 11C14.1904 11 14.75 10.4404 14.75 9.75Z" fill="white"/>
</svg>
