<svg width="31" height="30" viewBox="0 0 31 30" fill="none" xmlns="http://www.w3.org/2000/svg">
<path fill-rule="evenodd" clip-rule="evenodd" d="M26.9722 0.660124C26.9299 0.426875 26.7257 0.25 26.4803 0.25C26.2041 0.25 25.9803 0.473858 25.9803 0.75L25.9748 0.900285C25.9748 2.25 25.4201 2.74554 24.1295 2.75102L23.894 2.75876C23.6699 2.79942 23.5001 2.99549 23.5001 3.23124V3.2708C23.5001 3.53602 23.7151 3.75102 23.9803 3.75102L24.3801 3.75651C25.4224 3.75651 25.9748 4.3 25.9803 5.60176L25.9883 5.84148C26.0307 6.07473 26.2348 6.2516 26.4803 6.2516C26.7564 6.2516 26.9803 6.02774 26.9803 5.7516L26.9858 5.60176C26.9858 4.31 27.5257 3.75102 28.5801 3.75102H29.0013C29.2775 3.75102 29.5013 3.52716 29.5013 3.25102C29.5013 2.97488 29.2775 2.75102 29.0013 2.75102L28.5801 2.74554C27.5413 2.74554 26.9858 2.25 26.9803 0.900285L26.9722 0.660124ZM19.746 1.65116C14.5571 -0.287469 8.65981 0.937813 4.67373 4.9239C-0.891243 10.4889 -0.891243 19.5115 4.67373 25.0764C10.2387 30.6414 19.2613 30.6414 24.8263 25.0764C26.1665 23.7362 27.209 22.1696 27.9186 20.4547C28.6342 18.7251 29 16.8703 29 15.0002C29 13.1301 28.6342 11.2752 27.9186 9.54568C27.7602 9.16293 27.3216 8.98104 26.9388 9.1394C26.5561 9.29777 26.3742 9.73643 26.5325 10.1192C27.1727 11.6662 27.5 13.3261 27.5 15.0002C27.5 16.6742 27.1727 18.3341 26.5325 19.8812C25.898 21.4147 24.9658 22.8156 23.7656 24.0158C18.7864 28.995 10.7136 28.995 5.73439 24.0158C0.755204 19.0366 0.755204 10.9637 5.73439 5.98456C9.3012 2.41775 14.5776 1.32146 19.2211 3.0563C19.6091 3.20126 20.0412 3.00423 20.1861 2.61621C20.3311 2.2282 20.1341 1.79613 19.746 1.65116ZM19.8081 19.4789C19.5348 19.1676 19.061 19.1368 18.7497 19.4101C17.3709 20.6204 15.925 21.2125 14.3879 21.2125C12.8924 21.2125 11.7456 20.6569 10.8796 19.5194C10.6286 19.1898 10.1581 19.1261 9.82851 19.377C9.49894 19.6279 9.43518 20.0985 9.6861 20.428C10.8389 21.9422 12.4289 22.7125 14.3879 22.7125C16.3054 22.7125 18.0972 21.9787 19.7392 20.5374C20.0505 20.2641 20.0814 19.7902 19.8081 19.4789ZM9.75007 12.25C10.7166 12.25 11.5001 13.0335 11.5001 14C11.5001 14.9665 10.7166 15.75 9.75007 15.75C8.78357 15.75 8.00007 14.9665 8.00007 14C8.00007 13.0335 8.78357 12.25 9.75007 12.25ZM21.5001 14C21.5001 13.0335 20.7166 12.25 19.7501 12.25C18.7836 12.25 18.0001 13.0335 18.0001 14C18.0001 14.9665 18.7836 15.75 19.7501 15.75C20.7166 15.75 21.5001 14.9665 21.5001 14ZM21.9803 4.75C22.2257 4.75 22.4299 4.92688 22.4722 5.16012L22.4803 5.65C22.4803 6.70436 23.0462 7.16919 24.081 7.24554L24.5013 7.25102C24.7775 7.25102 25.0013 7.47488 25.0013 7.75102C25.0013 8.02716 24.7775 8.25102 24.5013 8.25102H24.1301C23.0757 8.25102 22.5621 8.8169 22.4858 9.85176L22.4803 10.2516C22.4803 10.5277 22.2564 10.7516 21.9803 10.7516C21.7348 10.7516 21.5307 10.5747 21.4883 10.3415L21.4803 9.86917C21.4803 8.81481 20.9149 8.33286 19.8801 8.25651L19.4803 8.25102C19.2151 8.25102 19.0001 8.03602 19.0001 7.7708V7.73124C19.0001 7.49549 19.1699 7.29942 19.394 7.25876L19.8801 7.25102C20.9344 7.25102 21.4748 6.69731 21.4748 5.65L21.4803 5.25C21.4803 4.97386 21.7041 4.75 21.9803 4.75Z" fill="white"/>
</svg>
