<svg width="29" height="30" viewBox="0 0 29 30" fill="none" xmlns="http://www.w3.org/2000/svg">
<path fill-rule="evenodd" clip-rule="evenodd" d="M18.4454 0.495117C20.6545 0.495117 22.4454 2.28598 22.4454 4.49512V20.522C22.4454 22.7311 20.6545 24.522 18.4454 24.522H4.30298C2.09384 24.522 0.302979 22.7311 0.302979 20.522V4.49512C0.302979 2.28598 2.09384 0.495117 4.30298 0.495117H18.4454ZM25.74 5.74697C27.0114 6.85104 27.6563 8.04974 27.6018 9.32715C27.5046 11.61 27.3964 13.9395 27.2762 16.1935L27.1382 18.6513L27.0271 20.4305L26.9193 21.9503C26.7773 23.8017 26.6413 24.9496 26.5008 25.3474C25.9387 26.9383 25.1544 28.1022 24.0322 28.655C23.1079 29.1103 21.5958 29.1535 18.5763 28.9671L17.8801 28.922L13.7751 28.6342L10.8993 28.4113L9.8068 28.3163L8.89141 28.2266C8.47953 28.1828 8.18117 27.8133 8.22502 27.4014C8.26886 26.9896 8.6383 26.6912 9.05019 26.735L9.6228 26.7926C10.3948 26.8663 11.4315 26.9529 12.7321 27.0521L14.2556 27.1653L18.6454 27.4681L19.5911 27.5198L20.188 27.5447C21.9 27.6052 22.9083 27.5365 23.3694 27.3094C24.0594 26.9695 24.6426 26.104 25.0865 24.8477L25.1181 24.7298C25.1942 24.3823 25.2862 23.5337 25.3861 22.294L25.5033 20.7129L25.6452 18.4864L25.7633 16.3934L25.8613 14.5096L25.9761 12.1257L26.1032 9.26329C26.1358 8.49787 25.7112 7.7086 24.7565 6.87953C24.4437 6.60794 24.4104 6.13423 24.682 5.82149C24.9536 5.50874 25.4273 5.47538 25.74 5.74697ZM4.30298 1.79512H18.4454C19.9366 1.79512 21.1454 3.00395 21.1454 4.49512V20.522C21.1454 22.0132 19.9366 23.222 18.4454 23.222H4.30298C2.81181 23.222 1.60298 22.0132 1.60298 20.522V4.49512C1.60298 3.00395 2.81181 1.79512 4.30298 1.79512ZM12.15 16.5C12.4262 16.5 12.65 16.7239 12.65 17V18.5C12.65 18.7762 12.4262 19 12.15 19H10.65C10.3739 19 10.15 18.7762 10.15 18.5V17C10.15 16.7239 10.3739 16.5 10.65 16.5H12.15ZM15.0675 8.92548C15.0675 6.48679 13.7751 5.12145 11.3742 5.12145C10.2524 5.12145 9.39583 5.50612 8.81388 6.21745C8.20909 6.95671 7.90196 7.95526 7.89248 9.21311C7.89038 9.48927 8.11257 9.71482 8.38872 9.7169L9.44215 9.68494L9.52624 9.67525C9.74464 9.63113 9.91188 9.44492 9.92588 9.21565C9.96932 8.50416 10.173 8.08749 10.2839 7.86077L10.2868 7.85479C10.5226 7.37243 10.9574 7.04557 11.7232 7.04557C12.4889 7.04557 13.0736 7.86707 13.0736 8.77116C13.0736 9.58397 12.8939 9.83079 12.6173 10.2106C12.5863 10.2533 12.554 10.2976 12.5206 10.3446C12.3505 10.5841 11.7652 11.3502 11.5676 11.5498L11.2164 11.8827C10.5563 12.5533 10.3756 13.4665 10.3756 14.2594V14.5713L10.3837 14.6612C10.426 14.8944 10.6302 15.0713 10.8756 15.0713H11.8756L11.9655 15.0632C12.1988 15.0209 12.3756 14.8168 12.3756 14.5713V14.2594L12.3812 14.1416C12.4067 13.8424 12.5205 13.3942 12.7046 13.2283C13.0904 12.8804 13.8404 11.9403 14.1511 11.5028C14.6959 10.7357 15.0035 9.87005 15.0675 8.92548Z" fill="white"/>
</svg>
