<svg width="11" height="8" viewBox="0 0 11 8" fill="none" xmlns="http://www.w3.org/2000/svg">
<path fill-rule="evenodd" clip-rule="evenodd" d="M5.08551 2.00119C5.02992 2.15761 5.00006 2.32532 5.00006 2.5C5.00006 3.32843 5.67163 4 6.50006 4C6.93762 4 7.33143 3.81264 7.60563 3.51378C7.85691 3.95164 8.00006 4.45911 8.00006 5C8.00006 6.65685 6.65691 8 5.00006 8C3.3432 8 2.00006 6.65685 2.00006 5C2.00006 3.40232 3.24898 2.09634 4.82379 2.00509L5.00006 2C5.02864 2 5.05712 2.0004 5.08551 2.00119ZM5.00006 0C7.08422 0 8.95629 1.17005 9.88994 2.97988L9.99347 3.19151L9.08602 3.61167C8.35476 2.03232 6.77117 1 5.00006 1C3.35569 1 1.87063 1.88961 1.08051 3.28743L0.977119 3.48115L0.0837402 3.03185C1.01079 1.18854 2.89936 0 5.00006 0Z" fill="white"/>
</svg>
