<svg width="24" height="21" viewBox="0 0 24 21" fill="none" xmlns="http://www.w3.org/2000/svg">
<path fill-rule="evenodd" clip-rule="evenodd" d="M11.8725 2.65894L11.2175 1.89334C8.58142 -0.742703 4.37761 -0.56307 1.74157 2.07297C-0.894471 4.70901 -0.387159 9.80534 2.24888 12.4414C3.31874 13.5112 4.92092 14.9925 7.05542 16.8853L8.85115 18.4651L10.8681 20.2158C11.4234 20.6951 12.2439 20.7024 12.8077 20.2332L14.4416 18.8632C17.3029 16.4451 19.4262 14.5404 20.8115 13.1493L21.171 12.7826L21.4939 12.4414C23.9489 9.79397 24.5798 4.6477 22.005 2.07297L21.8185 1.89334C19.1711 -0.561644 15.179 -0.681399 12.6042 1.89334L11.8725 2.65894ZM2.80223 3.13363C4.88666 1.0492 8.11137 0.951477 10.118 2.91566L11.8111 4.89431L13.6886 2.92971C15.6145 1.00438 18.6838 1.03221 20.7986 2.99322L20.9645 3.15341C22.7839 4.9732 22.4744 9.17794 20.394 11.4214L20.0815 11.7516L19.7348 12.105C18.5864 13.2575 16.8845 14.8016 14.6405 16.7246L13.4734 17.7176L11.8481 19.0803L9.83442 17.3323L8.39319 16.0663C6.36239 14.2714 4.79575 12.8358 3.69885 11.7651L3.30954 11.3807C1.138 9.20918 0.866398 5.06946 2.80223 3.13363Z" fill="white"/>
</svg>
