<svg width="279" height="12" viewBox="0 0 279 12" fill="none" xmlns="http://www.w3.org/2000/svg">
<path d="M27 4.5H277.5C278.328 4.5 279 5.17157 279 6C279 6.82843 278.328 7.5 277.5 7.5H27V4.5Z" fill="white" fill-opacity="0.2"/>
<path fill-rule="evenodd" clip-rule="evenodd" d="M27.5 11.5C30.5376 11.5 33 9.03757 33 6C33 2.96243 30.5376 0.5 27.5 0.5C24.4624 0.5 22 2.96243 22 6C22 9.03757 24.4624 11.5 27.5 11.5Z" fill="#FEFEFE"/>
<path d="M0 6C0 5.17157 0.671573 4.5 1.5 4.5H28V7.5H1.5C0.671572 7.5 0 6.82843 0 6Z" fill="#FEFEFE"/>
</svg>
