<svg width="15" height="3" viewBox="0 0 15 3" fill="none" xmlns="http://www.w3.org/2000/svg">
<path fill-rule="evenodd" clip-rule="evenodd" d="M2 0C2.82843 0 3.5 0.671573 3.5 1.5C3.5 2.32843 2.82843 3 2 3C1.17157 3 0.5 2.32843 0.5 1.5C0.5 0.671573 1.17157 0 2 0ZM8 0C8.82843 0 9.5 0.671573 9.5 1.5C9.5 2.32843 8.82843 3 8 3C7.17157 3 6.5 2.32843 6.5 1.5C6.5 0.671573 7.17157 0 8 0ZM13 0C13.8284 0 14.5 0.671573 14.5 1.5C14.5 2.32843 13.8284 3 13 3C12.1716 3 11.5 2.32843 11.5 1.5C11.5 0.671573 12.1716 0 13 0Z" fill="#FEFEFE"/>
</svg>
