<svg width="28" height="30" viewBox="0 0 28 30" fill="none" xmlns="http://www.w3.org/2000/svg">
<path fill-rule="evenodd" clip-rule="evenodd" d="M18.1424 0.495117C20.3516 0.495117 22.1424 2.28598 22.1424 4.49512V20.522C22.1424 22.7311 20.3516 24.522 18.1424 24.522H4C1.79086 24.522 0 22.7311 0 20.522V4.49512C0 2.28598 1.79086 0.495117 4 0.495117H18.1424ZM25.437 5.74697C26.7084 6.85104 27.3533 8.04974 27.2989 9.32715C27.2016 11.61 27.0934 13.9395 26.9732 16.1935L26.8352 18.6513L26.7241 20.4305L26.6163 21.9503C26.4743 23.8017 26.3383 24.9496 26.1978 25.3474C25.6357 26.9383 24.8515 28.1022 23.7292 28.655C22.805 29.1103 21.2928 29.1535 18.2733 28.9671L17.5771 28.922L13.4721 28.6342L10.5963 28.4113L9.50382 28.3163L8.58843 28.2266C8.17655 28.1828 7.87819 27.8133 7.92204 27.4014C7.96588 26.9896 8.33533 26.6912 8.74721 26.735L9.31982 26.7926C10.0919 26.8663 11.1285 26.9529 12.4291 27.0521L13.9526 27.1653L18.3424 27.4681L19.2881 27.5198L19.8851 27.5447C21.597 27.6052 22.6053 27.5365 23.0664 27.3094C23.7565 26.9695 24.3396 26.104 24.7835 24.8477L24.8151 24.7298C24.8912 24.3823 24.9832 23.5337 25.0831 22.294L25.2003 20.7129L25.3422 18.4864L25.4604 16.3934L25.5583 14.5096L25.6732 12.1257L25.8002 9.26329C25.8328 8.49787 25.4082 7.7086 24.4535 6.87953C24.1408 6.60794 24.1074 6.13423 24.379 5.82149C24.6506 5.50874 25.1243 5.47538 25.437 5.74697ZM4 1.79512H18.1424C19.6336 1.79512 20.8424 3.00395 20.8424 4.49512V20.522C20.8424 22.0132 19.6336 23.222 18.1424 23.222H4C2.50883 23.222 1.3 22.0132 1.3 20.522V4.49512C1.3 3.00395 2.50883 1.79512 4 1.79512ZM11.847 16.5C12.1232 16.5 12.347 16.7239 12.347 17V18.5C12.347 18.7762 12.1232 19 11.847 19H10.347C10.0709 19 9.84704 18.7762 9.84704 18.5V17C9.84704 16.7239 10.0709 16.5 10.347 16.5H11.847ZM14.7646 8.92548C14.7646 6.48679 13.4721 5.12145 11.0712 5.12145C9.94946 5.12145 9.09285 5.50612 8.5109 6.21745C7.90611 6.95671 7.59898 7.95526 7.58951 9.21311C7.5874 9.48927 7.80959 9.71482 8.08574 9.7169L9.13917 9.68494L9.22326 9.67525C9.44166 9.63113 9.6089 9.44492 9.6229 9.21565C9.66634 8.50416 9.87006 8.08749 9.98091 7.86077L9.98382 7.85479C10.2196 7.37243 10.6544 7.04557 11.4202 7.04557C12.186 7.04557 12.7706 7.86707 12.7706 8.77116C12.7706 9.58397 12.5909 9.83079 12.3143 10.2106C12.2833 10.2533 12.251 10.2976 12.2176 10.3446C12.0475 10.5841 11.4623 11.3502 11.2646 11.5498L10.9134 11.8827C10.2533 12.5533 10.0727 13.4665 10.0727 14.2594V14.5713L10.0807 14.6612C10.1231 14.8944 10.3272 15.0713 10.5727 15.0713H11.5727L11.6625 15.0632C11.8958 15.0209 12.0727 14.8168 12.0727 14.5713V14.2594L12.0782 14.1416C12.1038 13.8424 12.2176 13.3942 12.4016 13.2283C12.7874 12.8804 13.5374 11.9403 13.8482 11.5028C14.393 10.7357 14.7005 9.87005 14.7646 8.92548Z" fill="white"/>
</svg>
