<svg width="10" height="8" viewBox="0 0 10 8" fill="none" xmlns="http://www.w3.org/2000/svg">
<path fill-rule="evenodd" clip-rule="evenodd" d="M5.08545 2.00119C5.02986 2.15761 5 2.32532 5 2.5C5 3.32843 5.67157 4 6.5 4C6.93756 4 7.33137 3.81264 7.60557 3.51378C7.85685 3.95164 8 4.45911 8 5C8 6.65685 6.65685 8 5 8C3.34314 8 2 6.65685 2 5C2 3.40232 3.24892 2.09634 4.82372 2.00509L5 2C5.02858 2 5.05706 2.0004 5.08545 2.00119ZM5 0C7.08416 0 8.95623 1.17005 9.88988 2.97988L9.99341 3.19151L9.08596 3.61167C8.3547 2.03232 6.7711 1 5 1C3.35563 1 1.87057 1.88961 1.08044 3.28743L0.977058 3.48115L0.0836792 3.03185C1.01073 1.18854 2.8993 0 5 0Z" fill="white"/>
</svg>
