<svg width="11" height="19" viewBox="0 0 11 19" fill="none" xmlns="http://www.w3.org/2000/svg">
<path d="M10.1629 2.28033C10.4558 1.98744 10.4558 1.51256 10.1629 1.21967C9.87005 0.926777 9.39517 0.926777 9.10228 1.21967L1.29289 9.02906C0.902369 9.41958 0.902369 10.0527 1.29289 10.4433L9.10228 18.2527C9.39517 18.5455 9.87005 18.5455 10.1629 18.2527C10.4558 17.9598 10.4558 17.4849 10.1629 17.192L2.70711 9.73616L10.1629 2.28033Z" fill="white"/>
<path d="M10.2337 2.35104C10.5656 2.0191 10.5656 1.4809 10.2337 1.14896C9.9017 0.817014 9.36351 0.817014 9.03157 1.14896L9.10228 1.21967L9.03157 1.14896L1.22218 8.95835C0.792606 9.38792 0.792606 10.0844 1.22218 10.514L9.03157 18.3234C9.36351 18.6553 9.9017 18.6553 10.2337 18.3234C10.5656 17.9914 10.5656 17.4532 10.2337 17.1213L2.84853 9.73616L10.2337 2.35104Z" stroke="black" stroke-opacity="0.2" stroke-width="0.2"/>
</svg>
