<svg width="25" height="25" viewBox="0 0 25 25" fill="none" xmlns="http://www.w3.org/2000/svg">
<mask id="path-1-outside-1_0_3287" maskUnits="userSpaceOnUse" x="0" y="0" width="25" height="25" fill="black">
<rect fill="white" width="25" height="25"/>
<path fill-rule="evenodd" clip-rule="evenodd" d="M20.5 10.75C20.5 5.36522 16.1348 1 10.75 1C5.36522 1 1 5.36522 1 10.75C1 16.1348 5.36522 20.5 10.75 20.5C13.1726 20.5 15.3888 19.6164 17.094 18.154L23.0836 24.1443L23.1677 24.2169C23.4614 24.4348 23.878 24.4106 24.1443 24.1443C24.4372 23.8514 24.4372 23.3765 24.1443 23.0836L18.154 17.094C19.6164 15.3888 20.5 13.1726 20.5 10.75ZM2.5 10.75C2.5 6.19365 6.19365 2.5 10.75 2.5C15.3063 2.5 19 6.19365 19 10.75C19 15.3063 15.3063 19 10.75 19C6.19365 19 2.5 15.3063 2.5 10.75Z"/>
</mask>
<path fill-rule="evenodd" clip-rule="evenodd" d="M20.5 10.75C20.5 5.36522 16.1348 1 10.75 1C5.36522 1 1 5.36522 1 10.75C1 16.1348 5.36522 20.5 10.75 20.5C13.1726 20.5 15.3888 19.6164 17.094 18.154L23.0836 24.1443L23.1677 24.2169C23.4614 24.4348 23.878 24.4106 24.1443 24.1443C24.4372 23.8514 24.4372 23.3765 24.1443 23.0836L18.154 17.094C19.6164 15.3888 20.5 13.1726 20.5 10.75ZM2.5 10.75C2.5 6.19365 6.19365 2.5 10.75 2.5C15.3063 2.5 19 6.19365 19 10.75C19 15.3063 15.3063 19 10.75 19C6.19365 19 2.5 15.3063 2.5 10.75Z" fill="white"/>
<path d="M17.094 18.154L17.2355 18.0126L17.1045 17.8816L16.9638 18.0022L17.094 18.154ZM23.0836 24.1443L22.9422 24.2857L22.9474 24.2909L22.9529 24.2957L23.0836 24.1443ZM23.1677 24.2169L23.0371 24.3683L23.0426 24.3731L23.0486 24.3775L23.1677 24.2169ZM24.1443 23.0836L24.2857 22.9422L24.2857 22.9422L24.1443 23.0836ZM18.154 17.094L18.0022 16.9638L17.8816 17.1045L18.0126 17.2355L18.154 17.094ZM10.75 1.2C16.0243 1.2 20.3 5.47568 20.3 10.75H20.7C20.7 5.25477 16.2452 0.8 10.75 0.8V1.2ZM1.2 10.75C1.2 5.47568 5.47568 1.2 10.75 1.2V0.8C5.25477 0.8 0.8 5.25477 0.8 10.75H1.2ZM10.75 20.3C5.47568 20.3 1.2 16.0243 1.2 10.75H0.8C0.8 16.2452 5.25477 20.7 10.75 20.7V20.3ZM16.9638 18.0022C15.2935 19.4347 13.1231 20.3 10.75 20.3V20.7C13.2221 20.7 15.4842 19.7982 17.2242 18.3058L16.9638 18.0022ZM23.2251 24.0029L17.2355 18.0126L16.9526 18.2954L22.9422 24.2857L23.2251 24.0029ZM23.2984 24.0655L23.2143 23.9929L22.9529 24.2957L23.0371 24.3683L23.2984 24.0655ZM24.0029 24.0029C23.8077 24.198 23.5021 24.2159 23.2869 24.0563L23.0486 24.3775C23.4206 24.6536 23.9483 24.6231 24.2857 24.2857L24.0029 24.0029ZM24.0029 23.2251C24.2177 23.4398 24.2177 23.7881 24.0029 24.0029L24.2857 24.2857C24.6567 23.9147 24.6567 23.3132 24.2857 22.9422L24.0029 23.2251ZM18.0126 17.2355L24.0029 23.2251L24.2857 22.9422L18.2954 16.9526L18.0126 17.2355ZM20.3 10.75C20.3 13.1231 19.4347 15.2935 18.0022 16.9638L18.3058 17.2242C19.7982 15.4842 20.7 13.2221 20.7 10.75H20.3ZM10.75 2.3C6.08319 2.3 2.3 6.08319 2.3 10.75H2.7C2.7 6.30411 6.30411 2.7 10.75 2.7V2.3ZM19.2 10.75C19.2 6.08319 15.4168 2.3 10.75 2.3V2.7C15.1959 2.7 18.8 6.30411 18.8 10.75H19.2ZM10.75 19.2C15.4168 19.2 19.2 15.4168 19.2 10.75H18.8C18.8 15.1959 15.1959 18.8 10.75 18.8V19.2ZM2.3 10.75C2.3 15.4168 6.08319 19.2 10.75 19.2V18.8C6.30411 18.8 2.7 15.1959 2.7 10.75H2.3Z" fill="black" fill-opacity="0.2" mask="url(#path-1-outside-1_0_3287)"/>
</svg>
